PathFileType	4	(X/Y/Z)	P:\Projects\LMB_grand_challenge_database\project_only\opensim\experimental_data\SixthCompetition/DM_ngait_og1_new.trc
DataRate	CameraRate	NumFrames	NumMarkers	Units	OrigDataRate	OrigDataStartFrame	OrigNumFrames
120	120	8	68	mm	120	142	381
Frame#	Time	Sternum			Neck			R_Shoulder			L_Shoulder			Xiphoid			Thoracic			R_Asis			L_Asis			R_Psis			L_Psis			Lumbar			R_Elbow			R_ElbowMedial			R_ShoulderAnterior			R_ShoulderPosterior			R_Wrist			R_Radius			R_Ulna			L_Elbow			L_ElbowMedial			L_ShoulderAnterior			L_ShoulderPosterior			L_Wrist			L_Ulna			L_Radius			L_Thigh_Superior			L_Thigh_Inferior			L_Thigh_Lateral			L_Knee_Lateral			L_Knee_Medial			L_Patella			L_Shank_Superior			L_Shank_Inferior			L_Shank_Lateral			L_Ankle_Lateral			L_Ankle_Medial			R_Thigh_Superior			R_Thigh_Inferior			R_Thigh_Lateral			R_Knee_Lateral			R_Knee_Medial			R_Patella			R_Shank_Superior			R_Shank_Inferior			R_Shank_Lateral			R_Ankle_Lateral			RankleMedial			R_Heel			R_Toe			R_Midfoot_Medial			R_Midfoot_Lateral			R_Hindfoot			R_Midfoot_Superior			R_ToeMedial			R_ToeLateral			L_Heel			L_Toe			L_Midfoot_Medial			L_Midfoot_Lateral			L_Hindfoot			L_Midfoot_Superior			L_ToeMedial			L_ToeLateral			Oglobal			Sacral			Xglobal			Yglobal			Zglobal			
		X1	Y1	Z1	X2	Y2	Z2	X3	Y3	Z3	X4	Y4	Z4	X5	Y5	Z5	X6	Y6	Z6	X7	Y7	Z7	X8	Y8	Z8	X9	Y9	Z9	X10	Y10	Z10	X11	Y11	Z11	X12	Y12	Z12	X13	Y13	Z13	X14	Y14	Z14	X15	Y15	Z15	X16	Y16	Z16	X17	Y17	Z17	X18	Y18	Z18	X19	Y19	Z19	X20	Y20	Z20	X21	Y21	Z21	X22	Y22	Z22	X23	Y23	Z23	X24	Y24	Z24	X25	Y25	Z25	X26	Y26	Z26	X27	Y27	Z27	X28	Y28	Z28	X29	Y29	Z29	X30	Y30	Z30	X31	Y31	Z31	X32	Y32	Z32	X33	Y33	Z33	X34	Y34	Z34	X35	Y35	Z35	X36	Y36	Z36	X37	Y37	Z37	X38	Y38	Z38	X39	Y39	Z39	X40	Y40	Z40	X41	Y41	Z41	X42	Y42	Z42	X43	Y43	Z43	X44	Y44	Z44	X45	Y45	Z45	X46	Y46	Z46	X47	Y47	Z47	X48	Y48	Z48	X49	Y49	Z49	X50	Y50	Z50	X51	Y51	Z51	X52	Y52	Z52	X53	Y53	Z53	X54	Y54	Z54	X55	Y55	Z55	X56	Y56	Z56	X57	Y57	Z57	X58	Y58	Z58	X59	Y59	Z59	X60	Y60	Z60	X61	Y61	Z61	X62	Y62	Z62	X63	Y63	Z63	X64	Y64	Z64	X65	Y65	Z65	X66	Y66	Z66	X67	Y67	Z67	X68	Y68	Z68	

143	1.933333	-276.882	1341.68	159.79	-426.737	1437.83	184.215	-316.313	1372.59	339.685	-392.077	1391.79	0.284834	-265.97	1178.5	165.254	-531.995	1251.08	188.499	-358.682	955.093	319.554	-350.497	951.351	39.5376	-554.9690000000001	1003.97	205.179	-553.5599999999999	1001.41	127.111	-550.667	1052.38	166.625	-361.348	1062.58	447.429	-0	0	0	-0	0	0	-0	0	0	-277.532	794.9349999999999	427.923	-275.51	807.399	385.1	-324.233	796.985	438.79	-506.095	1071.3	-82.1721	-0	0	0	-0	0	0	-0	0	0	-517.103	801.212	-96.0872	-557.673	826.343	-103.086	-506.597	815.384	-51.6533	-0	0	0	-256.414	609.415	85.27119999999999	-256.996	684.015	105.502	-0	0	0	-0	0	0	-208.755	526.621	148.164	-257.716	447.954	72.6116	-274.47	177.497	67.9551	-247.524	304.482	146.621	-0	0	0	-0	0	0	-474.756	779.987	345.661	-514.782	566.745	313.648	-415.991	675.485	331.453	-0	0	0	-0	0	0	-460.732	445.658	260.188	-637.03	422.069	323.478	-761.951	255.978	313.86	-626.979	308.558	252.382	-0	0	0	-0	0	0	-904.539	195.375	256.364	-672.78	30.5505	274.051	-743.266	36.494	216.822	-766.3630000000001	36.8698	331.795	-852.851	104.342	312.036	-742.349	139.66	275.962	-706.231	30.7785	227.848	-719.774	32.71	318.572	-357.316	60.9496	117.818	-58.0651	57.0083	128.644	-140.201	36.6671	176.463	-146.886	35.1418	62.1863	-254.226	27.7321	65.6705	-193.593	121.075	119.526	-97.4521	38.3817	170.405	-92.4329	38.4944	75.2008	-0	0	0	-554.265	1002.69	166.145	-200	0	0	-0	0	200	-0	200	0	
144	1.941667	-268.012	1342.6	158.548	-418.003	1438.5	183.084	-307.272	1373.9	338.315	-383.257	1392.35	-0.6473950000000001	-256.858	1179.6	164.346	-522.898	1251.5	187.352	-349.51	955.366	318.731	-341.26	952.263	38.834	-545.72	1004.41	204.315	-544.4349999999999	1001.79	126.455	-541.561	1052.8	166.04	-353.923	1064.19	446.404	-0	0	0	-0	0	0	-0	0	0	-272.144	795.823	427.684	-269.75	808.026	384.572	-318.782	798.2430000000001	438.376	-494.764	1071.24	-83.7788	-0	0	0	-0	0	0	-0	0	0	-503.205	800.9880000000001	-98.3912	-543.929	825.946	-105.257	-492.478	815.194	-53.6339	-0	0	0	-247.845	609.341	84.1328	-247.924	684.206	104.741	-0	0	0	-0	0	0	-200.25	526.028	147.633	-250.277	447.723	72.9603	-272.965	177.511	68.44710000000001	-243.257	303.993	147.306	-0	0	0	-0	0	0	-458.424	777.442	340.514	-499.092	565.657	313.03	-402.089	675.701	330.545	-0	0	0	-0	0	0	-443.518	444.628	260.542	-621.245	423.899	322.885	-749.966	261.093	313.266	-613.386	310.244	251.947	-0	0	0	-0	0	0	-892.687	207.359	256.046	-671.378	28.8068	273.756	-741.188	39.007	217.035	-763.829	41.4618	332.073	-846.13	113.797	312.119	-734.0700000000001	142.338	275.497	-704.729	31.3303	227.98	-717.996	33.9619	318.62	-357.312	61.0124	117.897	-57.9024	56.4723	128.578	-140.225	36.0569	176.363	-146.946	35.0708	62.0825	-254.163	27.8123	65.50530000000001	-193.276	120.899	119.834	-97.13939999999999	37.9648	170.384	-92.3074	38.1563	75.25620000000001	-0	0	0	-545.077	1003.1	165.385	-200	0	0	-0	0	200	-0	200	0	
145	1.95	-259.02	1343.59	157.573	-409.331	1439.2	181.843	-298.596	1375.21	337.146	-374.435	1393.12	-2.02982	-247.703	1180.74	163.618	-514.076	1252.17	186.127	-340.352	955.753	317.826	-331.634	953.702	37.718	-536.468	1004.83	203.261	-535.042	1002.23	125.357	-532.408	1053.25	165.074	-346.31	1065.74	445.476	-0	0	0	-0	0	0	-0	0	0	-266.463	796.49	427.004	-263.955	808.836	383.91	-313.105	799.523	437.313	-483.195	1071.3	-85.29730000000001	-0	0	0	-0	0	0	-0	0	0	-488.934	800.818	-100.581	-529.939	825.646	-107.401	-478.11	815.14	-56.1167	-0	0	0	-240.341	608.095	82.19	-239.091	684.477	103.47	-0	0	0	-0	0	0	-192.386	524.998	147.135	-243.849	447.188	72.91630000000001	-271.691	177.281	69.29730000000001	-239.241	303.157	147.359	-0	0	0	-0	0	0	-443.803	775.9109999999999	337.189	-482.934	564.46	312.229	-388.371	676.151	329.768	-0	0	0	-0	0	0	-426.214	443.78	260.394	-604.998	425.844	322.204	-737.727	266.507	312.552	-599.732	311.933	251.719	-0	0	0	-0	0	0	-879.974	219.553	255.481	-669.2430000000001	27.264	273.609	-738.38	42.6562	217.076	-760.4400000000001	47.108	332.168	-838.5940000000001	124.005	311.911	-725.226	145.785	274.847	-702.582	32.2306	227.972	-715.356	35.6843	318.598	-357.241	61.0761	117.956	-57.5787	55.8898	128.69	-140.575	36.3274	178.047	-146.607	33.9329	63.7496	-253.022	26.771	66.2462	-192.974	120.621	120.146	-96.8903	37.487	170.314	-92.1658	38.2368	75.4721	-0	0	0	-535.755	1003.53	164.309	-200	0	0	-0	0	200	-0	200	0	
146	1.958333	-250.436	1344.38	156.646	-400.887	1440.01	180.538	-290.056	1376.33	335.89	-365.346	1393.82	-2.97162	-238.929	1181.79	163.017	-505.134	1252.57	184.917	-331.353	956.3150000000001	317.087	-322.097	954.696	36.8419	-527.296	1005.15	202.132	-525.73	1002.56	124.324	-523.34	1053.59	164.04	-338.568	1067.13	444.545	-0	0	0	-0	0	0	-0	0	0	-261.014	797.232	426.442	-258.294	809.547	383.234	-307.559	800.729	436.78	-471.546	1071.26	-86.9941	-0	0	0	-0	0	0	-0	0	0	-474.207	800.825	-103.012	-515.4	825.2569999999999	-109.591	-463.509	815.13	-58.2743	-0	0	0	-234.099	606.123	80.2512	-230.508	684.812	101.737	-0	0	0	-0	0	0	-184.982	524.0839999999999	146.933	-238.346	446.215	72.4606	-270.941	177.073	69.5167	-235.165	302.281	147.129	-0	0	0	-0	0	0	-431.459	775.211	335.445	-467.119	563.356	311.689	-374.3	676.7619999999999	329.349	-0	0	0	-0	0	0	-408.646	443.052	260.505	-588.593	428.116	321.408	-725.1420000000001	272.27	311.889	-585.842	313.905	251.635	-0	0	0	-0	0	0	-866.329	232.149	254.846	-667.176	26.0288	273.921	-735.046	47.3733	216.914	-756.24	53.7616	332.077	-830.171	134.798	311.709	-715.76	149.908	273.97	-699.876	33.6382	228.057	-712.019	37.3727	318.237	-357.196	61.1053	118.007	-57.3129	55.4067	128.661	-140.636	35.3391	178.053	-146.54	34.2774	63.7279	-253.485	27.2615	66.16379999999999	-192.028	120.67	121.088	-96.7722	37.0397	170.364	-92.0753	37.7454	75.3436	-0	0	0	-526.513	1003.86	163.228	-200	0	0	-0	0	200	-0	200	0	
147	1.966667	-241.912	1345.36	155.844	-392.604	1440.73	179.279	-281.977	1377.61	334.982	-356.544	1394.49	-4.16913	-230.227	1182.85	162.259	-496.502	1253.14	183.739	-322.576	956.854	316.443	-312.384	956.077	35.9246	-518.244	1005.48	200.941	-516.402	1002.89	123.078	-514.373	1053.95	162.896	-330.922	1068.47	443.814	-0	0	0	-0	0	0	-0	0	0	-254.994	797.917	425.665	-252.783	809.946	382.249	-301.229	801.788	436.218	-459.728	1071.18	-88.7812	-0	0	0	-0	0	0	-0	0	0	-458.554	800.9059999999999	-105.627	-499.922	824.654	-112.185	-448.383	815.091	-60.4566	-0	0	0	-228.444	603.922	78.6189	-222.188	685.194	99.6007	-0	0	0	-0	0	0	-178.102	522.832	146.238	-233.697	445.216	71.5904	-270.236	176.802	69.6905	-230.79	301.432	146.415	-0	0	0	-0	0	0	-418.874	776.1130000000001	333.191	-450.82	562.3150000000001	310.952	-360.809	677.51	328.757	-0	0	0	-0	0	0	-391.479	442.602	260.495	-572.2430000000001	430.767	320.62	-711.928	278.197	310.945	-571.276	316.028	251.834	-0	0	0	-0	0	0	-851.15	244.585	253.777	-664.455	24.4102	274.334	-730.1849999999999	52.7476	216.604	-750.922	60.7881	331.747	-820.646	145.715	311.101	-705.395	154.39	273.185	-696.37	35.11	228.104	-708.899	40.006	318.835	-357.063	61.1255	117.942	-57.1893	55.0133	128.711	-140.341	34.9068	177.202	-146.629	34.1264	62.8956	-253.526	27.4413	65.79940000000001	-192.433	120.22	120.602	-96.7102	36.7795	170.313	-92.0654	37.5309	75.286	-0	0	0	-517.323	1004.19	162.009	-200	0	0	-0	0	200	-0	200	0	
148	1.975	-233.499	1346.38	155.194	-384.5	1441.55	177.99	-273.906	1378.92	333.835	-347.838	1395.19	-5.18405	-221.597	1183.98	161.895	-488.08	1253.77	182.439	-313.871	957.384	315.654	-302.749	957.395	35.1433	-509.25	1005.96	199.639	-507.207	1003.31	121.739	-505.41	1054.4	161.723	-323.371	1069.87	443.195	-0	0	0	-0	0	0	-0	0	0	-249.088	798.369	424.951	-247.343	810.506	381.7	-295.239	803.002	435.955	-447.761	1070.93	-90.67870000000001	-0	0	0	-0	0	0	-0	0	0	-440.149	802.871	-108.632	-484.781	824.234	-114.378	-432.317	815.0839999999999	-62.7253	-0	0	0	-223.064	601.206	77.0072	-214.141	685.606	97.13030000000001	-0	0	0	-0	0	0	-171.638	521.491	145.772	-229.76	444.277	70.18640000000001	-269.936	176.782	69.3497	-226.341	300.803	145.351	-0	0	0	-0	0	0	-406.651	775.187	331.256	-434.338	561.381	310.203	-347.901	678.6	328.932	-0	0	0	-0	0	0	-373.695	442.413	260.505	-555.975	433.813	319.888	-698.192	284.094	309.938	-555.203	318.272	252.216	-0	0	0	-0	0	0	-834.612	256.66	252.367	-662.263	22.6078	274.867	-724.521	58.1142	216.651	-744.688	68.19029999999999	331.735	-810.194	156.662	310.663	-694.165	158.72	272.415	-692.427	36.4186	228.355	-705.059	42.2968	318.77	-357.012	61.1267	117.901	-57.1079	54.6252	128.737	-140.588	35.2883	178.403	-146.386	33.1567	64.0874	-252.57	26.6851	66.4397	-192.332	119.99	120.567	-96.6395	36.5581	170.353	-91.9816	37.2138	75.1949	-0	0	0	-508.229	1004.63	160.689	-200	0	0	-0	0	200	-0	200	0	
149	1.983333	-225.267	1347.4	154.524	-376.37	1442.4	176.701	-266.52	1380.08	332.968	-339.373	1395.92	-6.45218	-212.997	1185.04	161.509	-478.958	1254.06	180.741	-305.273	957.933	314.819	-293.102	958.754	34.5848	-500.344	1006.41	198.241	-498.083	1003.76	120.415	-496.501	1054.85	160.549	-315.343	1071	441.927	-0	0	0	-0	0	0	-0	0	0	-243.311	798.991	424.218	-242.023	810.796	380.745	-288.78	803.905	435.794	-435.844	1070.9	-92.48909999999999	-0	0	0	-0	0	0	-0	0	0	-426.506	801.527	-109.877	-470.29	824.208	-115.93	-417.035	815.093	-64.7432	-0	0	0	-217.788	598.848	75.5784	-206.374	686.032	94.40519999999999	-0	0	0	-0	0	0	-165.645	520.072	145.037	-226.332	443.619	68.702	-268.426	176.513	69.2638	-222.379	300.394	144.241	-0	0	0	-0	0	0	-394.25	774.544	329.279	-418.033	561.001	309.732	-334.815	679.973	329.066	-0	0	0	-0	0	0	-355.809	442.543	260.884	-538.825	436.307	319.544	-683.932	289.715	309.015	-538.76	321.122	252.92	-0	0	0	-0	0	0	-817.252	268.004	250.491	-664.365	18.5134	271.995	-717.643	63.781	216.033	-737.924	75.2916	330.962	-798.711	166.896	309.393	-682.273	162.782	271.687	-687.708	37.6921	228.152	-700.804	44.3054	318.859	-356.912	61.1269	117.858	-56.9854	54.2202	128.63	-140.784	35.8744	179.653	-146.085	32.1928	65.3532	-251.973	25.6453	67.0898	-192.161	119.843	120.444	-96.6023	36.3084	170.302	-91.7621	36.648	75.3039	-0	0	0	-499.214	1005.09	159.328	-200	0	0	-0	0	200	-0	200	0	
150	1.991667	-217.167	1348.59	154.053	-368.531	1443.31	175.467	-259.082	1381.32	332.274	-330.361	1396.61	-7.19967	-204.686	1186.22	160.913	-470.345	1254.68	179.062	-296.898	958.845	314.209	-283.573	959.908	34.0245	-491.612	1007.03	196.913	-489.033	1004.33	119.009	-487.71	1055.44	159.223	-307.561	1072.19	441.338	-0	0	0	-0	0	0	-0	0	0	-237.43	799.434	423.744	-236.327	811.323	380.044	-283.181	805.24	436.446	-423.683	1070.76	-94.37820000000001	-0	0	0	-0	0	0	-0	0	0	-411.503	800.225	-111.516	-453.733	823.388	-118.286	-401.293	815.336	-66.71550000000001	-0	0	0	-211.764	596.5700000000001	73.2132	-198.894	686.457	91.5111	-0	0	0	-0	0	0	-159.886	518.729	143.97	-222.918	443.201	67.4576	-267.03	176.671	69.0187	-218.959	300.243	143.367	-0	0	0	-0	0	0	-391.784	776.804	338.373	-402.032	560.8819999999999	309.686	-321.397	681.451	328.946	-0	0	0	-0	0	0	-338.508	442.985	261.282	-522.144	439.289	319.039	-669.047	294.798	308.043	-522.186	324.079	253.564	-0	0	0	-0	0	0	-799.867	278.258	247.851	-659.952	18.1024	273.724	-709.756	69.3847	215.171	-731.091	82.1352	329.778	-786.4880000000001	175.949	307.329	-670.0359999999999	166.346	271.231	-682.746	38.5081	228.263	-696.5069999999999	46.1404	318.582	-356.943	61.1951	117.825	-56.8777	53.8932	128.596	-140.945	35.9052	180.057	-146.088	31.6611	65.76949999999999	-251.744	25.2877	67.3248	-191.995	119.697	120.357	-96.5137	36.1366	170.285	-91.8695	36.5728	75.06319999999999	-0	0	0	-490.322	1005.68	157.961	-200	0	0	-0	0	200	-0	200	0	
